/* XPM */
static char * close_pressed_xpm[] = {
"24 25 31 1",
" 	c None",
".	c #28343A",
"@	c #222D32",
"#	c #47323E",
"$	c #A82D39",
"%	c #CD2936",
"&	c #D42735",
"*	c #A82E39",
"=	c #85303C",
"-	c #D52735",
";	c #852F3B",
">	c #CE2633",
",	c #C82432",
"'	c #D32735",
")	c #48323C",
"!	c #C82433",
"~	c #A11D2C",
"{	c #C32431",
"]	c #A82E3A",
"^	c #C32432",
"/	c #A11D2B",
"(	c #C22331",
"_	c #CD2A36",
":	c #D42736",
"<	c #A01D2B",
"[	c #A72E3A",
"}	c #D22835",
"|	c #46313E",
"1	c #82303B",
"2	c #CC2936",
"3	c #D52736",
"........................",
"@@@@@@@@@@@@@@@@@@@@@@@@",
"@@@@@@@@@@@@@@@@@@@@@@@@",
"@@@@@@@@@@@@@@@@@@@@@@@@",
"@@@@@@@@@@@@@@@@@@@@@@@@",
"@@@@@@@@#$%&&%*#@@@@@@@@",
"@@@@@@@=&------&;@@@@@@@",
"@@@@@@=&---------;@@@@@@",
"@@@@@#&->,----,>-')@@@@@",
"@@@@@$--!~{--{~!--]@@@@@",
"@@@@@%---^/(^/(---_@@@@@",
"@@@@@:----^</(----&@@@@@",
"@@@@@&----^<<(----'@@@@@",
"@@@@@%---^/(^/(---_@@@@@",
"@@@@@*--,~{--{~!--[@@@@@",
"@@@@@#&->,----,>-}|@@@@@",
"@@@@@@;----------1@@@@@@",
"@@@@@@@;'------}1@@@@@@@",
"@@@@@@@@)]2332[|@@@@@@@@",
"@@@@@@@@@@@@@@@@@@@@@@@@",
"@@@@@@@@@@@@@@@@@@@@@@@@",
"@@@@@@@@@@@@@@@@@@@@@@@@",
"@@@@@@@@@@@@@@@@@@@@@@@@",
"@@@@@@@@@@@@@@@@@@@@@@@@",
"@@@@@@@@@@@@@@@@@@@@@@@@"};
