/* XPM */
static char * hide_active_xpm[] = {
"24 25 28 1",
" 	c None",
".	c #28343A",
"@	c #222D32",
"#	c #474743",
"$	c #A98B43",
"%	c #D9A72E",
"&	c #E4AD22",
"*	c #D7A72E",
"=	c #A88B44",
"-	c #857349",
";	c #E3AB22",
">	c #F6C031",
",	c #FAC536",
"'	c #E3AC22",
")	c #847248",
"!	c #EAB224",
"~	c #E9B124",
"{	c #E2AB22",
"]	c #474543",
"^	c #D9A72D",
"/	c #D7A62E",
"(	c #E3AC23",
"_	c #A78A44",
":	c #E2AB23",
"<	c #454443",
"[	c #E9B223",
"}	c #827248",
"|	c #D7A72F",
"........................",
"@@@@@@@@@@@@@@@@@@@@@@@@",
"@@@@@@@@@@@@@@@@@@@@@@@@",
"@@@@@@@@@@@@@@@@@@@@@@@@",
"@@@@@@@@@@@@@@@@@@@@@@@@",
"@@@@@@@@#$%&&*=#@@@@@@@@",
"@@@@@@@-;>,,,,>')@@@@@@@",
"@@@@@@-!,,,,,,,,~)@@@@@@",
"@@@@@#;,,,,,,,,,,{]@@@@@",
"@@@@@$>,,,,,,,,,,>=@@@@@",
"@@@@@^,,,,,,,,,,,,/@@@@@",
"@@@@@&,,,,,,,,,,,,;@@@@@",
"@@@@@;,,,,,,,,,,,,(@@@@@",
"@@@@@%,,,,,,,,,,,,/@@@@@",
"@@@@@=>,,,,,,,,,,>_@@@@@",
"@@@@@#',,,,,,,,,,:<@@@@@",
"@@@@@@)~,,,,,,,,[}@@@@@@",
"@@@@@@@){>,,,,>:}@@@@@@@",
"@@@@@@@@]=|&&|_<@@@@@@@@",
"@@@@@@@@@@@@@@@@@@@@@@@@",
"@@@@@@@@@@@@@@@@@@@@@@@@",
"@@@@@@@@@@@@@@@@@@@@@@@@",
"@@@@@@@@@@@@@@@@@@@@@@@@",
"@@@@@@@@@@@@@@@@@@@@@@@@",
"@@@@@@@@@@@@@@@@@@@@@@@@"};
