/* XPM */
static char * hide_prelight_xpm[] = {
"24 25 34 1",
" 	c None",
".	c #28343A",
"@	c #222D32",
"#	c #3D3C39",
"$	c #866822",
"%	c #C5941D",
"&	c #E0A91E",
"*	c #C4941D",
"=	c #856823",
"-	c #66552B",
";	c #DEA61D",
">	c #F6C031",
",	c #FAC536",
"'	c #DEA71D",
")	c #65542B",
"!	c #EAB224",
"~	c #E9B124",
"{	c #DDA61D",
"]	c #3C3B39",
"^	c #846823",
"/	c #C6951C",
"(	c #C4931D",
"_	c #DFA81E",
":	c #DDA62C",
"<	c #BF8422",
"[	c #DEA61E",
"}	c #DDA62D",
"|	c #DEA71E",
"1	c #836723",
"2	c #DCA51D",
"3	c #3B3B3A",
"4	c #E9B223",
"5	c #63532C",
"6	c #C3931D",
"........................",
"@@@@@@@@@@@@@@@@@@@@@@@@",
"@@@@@@@@@@@@@@@@@@@@@@@@",
"@@@@@@@@@@@@@@@@@@@@@@@@",
"@@@@@@@@@@@@@@@@@@@@@@@@",
"@@@@@@@@#$%&&*=#@@@@@@@@",
"@@@@@@@-;>,,,,>')@@@@@@@",
"@@@@@@-!,,,,,,,,~)@@@@@@",
"@@@@@#;,,,,,,,,,,{]@@@@@",
"@@@@@$>,,,,,,,,,,>^@@@@@",
"@@@@@/,,,,,,,,,,,,(@@@@@",
"@@@@@_,:<<<<<<<<:,[@@@@@",
"@@@@@[,:<<<<<<<<},|@@@@@",
"@@@@@%,,,,,,,,,,,,(@@@@@",
"@@@@@=>,,,,,,,,,,>1@@@@@",
"@@@@@#',,,,,,,,,,23@@@@@",
"@@@@@@)~,,,,,,,,45@@@@@@",
"@@@@@@@){>,,,,>25@@@@@@@",
"@@@@@@@@]^6__613@@@@@@@@",
"@@@@@@@@@@@@@@@@@@@@@@@@",
"@@@@@@@@@@@@@@@@@@@@@@@@",
"@@@@@@@@@@@@@@@@@@@@@@@@",
"@@@@@@@@@@@@@@@@@@@@@@@@",
"@@@@@@@@@@@@@@@@@@@@@@@@",
"@@@@@@@@@@@@@@@@@@@@@@@@"};
