/* XPM */
static char * hide_pressed_xpm[] = {
"24 25 30 1",
" 	c None",
".	c #28343A",
"@	c #222D32",
"$	c #40403E",
"%	c #987F3A",
"&	c #DBAF37",
"*	c #F4C035",
"=	c #DAAE37",
"-	c #967F3A",
";	c #72643C",
">	c #F2BF36",
",	c #FAC536",
"'	c #F2C036",
")	c #71633C",
"!	c #F9C536",
"~	c #F9C436",
"{	c #F1BF36",
"]	c #403F3D",
"^	c #957E3A",
"/	c #DCB037",
"(	c #DAAD37",
"_	c #F3C036",
":	c #DDA62C",
"<	c #BF8422",
"[	c #DDA62D",
"}	c #967E39",
"|	c #3F3E3E",
"1	c #6F623B",
"2	c #2E333A",
"3	c #DAAE38",
"........................",
"@@@@@@@@@@@@@@@@@@@@@@@@",
"@@@@@@@@@@@@@@@@@@@@@@@@",
"@@@@@@@@@@@@@@@@@@@@@@@@",
"@@@@@@@@@@@@@@@@@@@@@@@@",
"@@@@@@@@$%&**=-$@@@@@@@@",
"@@@@@@@;>,,,,,,')@@@@@@@",
"@@@@@@;!,,,,,,,,~)@@@@@@",
"@@@@@$>,,,,,,,,,,{]@@@@@",
"@@@@@%,,,,,,,,,,,,^@@@@@",
"@@@@@/,,,,,,,,,,,,(@@@@@",
"@@@@@_,:<<<<<<<<:,>@@@@@",
"@@@@@>,:<<<<<<<<[,>@@@@@",
"@@@@@&,,,,,,,,,,,,(@@@@@",
"@@@@@-,,,,,,,,,,,,}@@@@@",
"@@@@@$',,,,,,,,,,>|@@@@@",
"@@@@@@)~,,,,,,,,!1@2@@@@",
"@@@@@@@){,,,,,,>1@@@@@@@",
"@@@@@@@@]^3__3}|@@@@@@@@",
"@@@@@@@@@@@@@@@@@@@@@@@@",
"@@@@@@@@@@@@@@@@@@@@@@@@",
"@@@@@@@@@@@@@@@@@@@@@@@@",
"@@@@@@@@@@@@@@@@@@@@@@@@",
"@@@@@@@@@@@@@@@@@@@@@@@@",
"@@@@@@@@@@@@@@@@@@@@@@@@"};
