/* XPM */
static char * maximize_pressed_xpm[] = {
"24 25 40 1",
" 	c None",
".	c #28343A",
"@	c #222D32",
"$	c #2C403C",
"%	c #207E2E",
"&	c #17AB22",
"*	c #14BD1F",
"=	c #17AA23",
"-	c #207D2D",
";	c #256234",
">	c #13BC1F",
",	c #13C11E",
"'	c #13C01E",
")	c #10A416",
"!	c #0F9310",
"~	c #0E9711",
"{	c #12B91C",
"]	c #2D3F3B",
"^	c #13BD1C",
"/	c #0C860C",
"(	c #0B7407",
"_	c #0F9912",
":	c #217C2D",
"<	c #17AB21",
"[	c #11A716",
"}	c #13BC1C",
"|	c #0F9812",
"1	c #17AC23",
"2	c #14BD20",
"3	c #0D840C",
"4	c #12BE1D",
"5	c #0D870D",
"6	c #14BC1F",
"7	c #0D850C",
"8	c #11A816",
"9	c #217C2E",
"0	c #0E9611",
"a	c #10A415",
"b	c #2C3E3C",
"c	c #256134",
"........................",
"@@@@@@@@@@@@@@@@@@@@@@@@",
"@@@@@@@@@@@@@@@@@@@@@@@@",
"@@@@@@@@@@@@@@@@@@@@@@@@",
"@@@@@@@@@@@@@@@@@@@@@@@@",
"@@@@@@@@$%&**=-$@@@@@@@@",
"@@@@@@@;>,,,,,,>;@@@@@@@",
"@@@@@@;,,,,,,,,,';@@@@@@",
"@@@@@$>,,,)!!!~{,>]@@@@@",
"@@@@@%,,,,^/(((_,,:@@@@@",
"@@@@@<,,[},^/((|,,1@@@@@",
"@@@@@2,,|3},45(|,,6@@@@@",
"@@@@@6,,|(3},45|,,6@@@@@",
"@@@@@&,,|((7^,^8,,1@@@@@",
"@@@@@-,,_(((7^,,,,9@@@@@",
"@@@@@$>,{0!!!a,,,6b@@@@@",
"@@@@@@;',,,,,,,,,c@@@@@@",
"@@@@@@@;>,,,,,,6c@@@@@@@",
"@@@@@@@@]:=22=9b@@@@@@@@",
"@@@@@@@@@@@@@@@@@@@@@@@@",
"@@@@@@@@@@@@@@@@@@@@@@@@",
"@@@@@@@@@@@@@@@@@@@@@@@@",
"@@@@@@@@@@@@@@@@@@@@@@@@",
"@@@@@@@@@@@@@@@@@@@@@@@@",
"@@@@@@@@@@@@@@@@@@@@@@@@"};
