/* XPM */
static char * maximize_prelight_xpm[] = {
"24 25 46 1",
" 	c None",
".	c #28343A",
"@	c #222D32",
"#	c #2C3F3B",
"$	c #1E7B2B",
"%	c #1DB329",
"&	c #22CB2E",
"*	c #1DB229",
"=	c #1E7A2A",
"-	c #236030",
";	c #20C92E",
">	c #34E544",
",	c #39EA49",
"'	c #20C92D",
")	c #27D634",
"!	c #26D534",
"~	c #28BE31",
"{	c #1EA421",
"]	c #1FA924",
"^	c #34DE43",
"/	c #20C82D",
"(	c #2C3E3A",
"_	c #37E445",
":	c #158F16",
"<	c #0B7407",
"[	c #21AD27",
"}	c #34E443",
"|	c #1E792A",
"1	c #2AC333",
"2	c #37E345",
"3	c #20AA25",
"4	c #1CB229",
"5	c #148C15",
"6	c #36E244",
"7	c #37E546",
"8	c #169217",
"9	c #21CB2D",
"0	c #21CA2E",
"a	c #168E15",
"b	c #2BC434",
"c	c #34E543",
"d	c #1FA925",
"e	c #27BD30",
"f	c #2B3D3B",
"g	c #235E31",
"h	c #1CB129",
"........................",
"@@@@@@@@@@@@@@@@@@@@@@@@",
"@@@@@@@@@@@@@@@@@@@@@@@@",
"@@@@@@@@@@@@@@@@@@@@@@@@",
"@@@@@@@@@@@@@@@@@@@@@@@@",
"@@@@@@@@#$%&&*=#@@@@@@@@",
"@@@@@@@-;>,,,,>'-@@@@@@@",
"@@@@@@-),,,,,,,,!-@@@@@@",
"@@@@@#;,,,~{{{]^,/(@@@@@",
"@@@@@$>,,,_:<<<[,}|@@@@@",
"@@@@@*,,12,_:<<3,,4@@@@@",
"@@@@@&,,356,78<3,,9@@@@@",
"@@@@@9,,3<56,783,,0@@@@@",
"@@@@@%,,3<<a2,_b,,4@@@@@",
"@@@@@=c,[<<<a2,,,}|@@@@@",
"@@@@@#',^d{{{e,,,/f@@@@@",
"@@@@@@-!,,,,,,,,!g@@@@@@",
"@@@@@@@-/},,,,}/g@@@@@@@",
"@@@@@@@@(|h&&h|f@@@@@@@@",
"@@@@@@@@@@@@@@@@@@@@@@@@",
"@@@@@@@@@@@@@@@@@@@@@@@@",
"@@@@@@@@@@@@@@@@@@@@@@@@",
"@@@@@@@@@@@@@@@@@@@@@@@@",
"@@@@@@@@@@@@@@@@@@@@@@@@",
"@@@@@@@@@@@@@@@@@@@@@@@@"};
