/* XPM */
static char * maximize_active_xpm[] = {
"24 25 28 1",
" 	c None",
".	c #28343A",
"@	c #222D32",
"#	c #2C403C",
"$	c #207E2F",
"%	c #1EB42B",
"&	c #22CB2E",
"*	c #1EB32B",
"=	c #207D2D",
"-	c #256234",
";	c #20C92E",
">	c #34E544",
",	c #39EA49",
"'	c #20C92D",
")	c #27D634",
"!	c #26D534",
"~	c #20C82D",
"{	c #2D3F3B",
"]	c #34E443",
"^	c #217C2D",
"/	c #22CC2E",
"(	c #21CC2D",
"_	c #21CA2E",
":	c #34E543",
"<	c #217C2E",
"[	c #2C3E3C",
"}	c #256134",
"|	c #1EB32A",
"........................",
"@@@@@@@@@@@@@@@@@@@@@@@@",
"@@@@@@@@@@@@@@@@@@@@@@@@",
"@@@@@@@@@@@@@@@@@@@@@@@@",
"@@@@@@@@@@@@@@@@@@@@@@@@",
"@@@@@@@@#$%&&*=#@@@@@@@@",
"@@@@@@@-;>,,,,>'-@@@@@@@",
"@@@@@@-),,,,,,,,!-@@@@@@",
"@@@@@#;,,,,,,,,,,~{@@@@@",
"@@@@@$>,,,,,,,,,,]^@@@@@",
"@@@@@%,,,,,,,,,,,,*@@@@@",
"@@@@@/,,,,,,,,,,,,(@@@@@",
"@@@@@(,,,,,,,,,,,,_@@@@@",
"@@@@@%,,,,,,,,,,,,*@@@@@",
"@@@@@=:,,,,,,,,,,]<@@@@@",
"@@@@@#',,,,,,,,,,~[@@@@@",
"@@@@@@-!,,,,,,,,!}@@@@@@",
"@@@@@@@-~],,,,]~}@@@@@@@",
"@@@@@@@@{^|//|<[@@@@@@@@",
"@@@@@@@@@@@@@@@@@@@@@@@@",
"@@@@@@@@@@@@@@@@@@@@@@@@",
"@@@@@@@@@@@@@@@@@@@@@@@@",
"@@@@@@@@@@@@@@@@@@@@@@@@",
"@@@@@@@@@@@@@@@@@@@@@@@@",
"@@@@@@@@@@@@@@@@@@@@@@@@"};
